{
.appVersion = "895";
DisplayStrings = (
"/uni05D0/uni05D1/uni05D2/uni05D3/uni05D4/uni05D5/uni05D6/uni05D7/uni05D8/uni05D9/uni05DB/uni05DA/uni05DC \012/uni05DE/uni05DD/uni05E0/uni05DF/uni05E1/uni05E2/uni05E4/uni05E3/uni05E6/uni05E5/uni05E7/uni05E8/uni05E9/uni05EA"
);
copyright = "Copyright © 2000 by Tamirp.com. All rights reserved.";
customParameters = (
{
name = description;
value = "Copyright (c) 2000 by Tamirp. All rights reserved.";
},
{
name = vendorID;
value = "MS  ";
},
{
name = panose;
value = (
2,
1,
4,
1,
1,
1,
1,
1,
1,
1
);
},
{
name = unicodeRanges;
value = (
11,
12,
62
);
},
{
name = codePageRanges;
value = (
1255
);
},
{
name = glyphOrder;
value = (
.notdef,
NULL,
uni000D,
space,
exclam,
quotedbl,
numbersign,
dollar,
percent,
ampersand,
quotesingle,
parenleft,
parenright,
asterisk,
plus,
comma,
hyphen,
period,
slash,
zero,
one,
two,
three,
four,
five,
six,
seven,
eight,
nine,
colon,
semicolon,
less,
equal,
greater,
question,
at,
bracketleft,
backslash,
bracketright,
asciicircum,
underscore,
braceleft,
bar,
braceright,
asciitilde,
cent,
sterling,
section,
copyright,
guillemotleft,
paragraph,
guillemotright,
onequarter,
onehalf,
threequarters,
multiply,
divide,
endash,
emdash,
quoteleft,
quoteright,
quotedblleft,
quotedblright,
middot.001,
bullet,
uni2039,
uni203A,
uni0591,
uni0592,
uni0593,
uni0594,
uni0595,
uni0596,
uni0597,
uni0598,
uni0599,
uni059A,
uni059B,
uni059C,
uni059D,
uni059E,
uni059F,
uni05A0,
uni05A1,
uni05A3,
uni05A4,
uni05A5,
uni05A6,
uni05A7,
uni05A8,
uni05A9,
uni05AA,
uni05AB,
uni05AC,
uni05AD,
uni05AE,
uni05AF,
uni05B0,
uni05B1,
uni05B2,
uni05B3,
uni05B4,
uni05B5,
uni05B6,
uni05B7,
uni05B8,
uni05B9,
uni05BB,
uni05BC,
uni05BD,
uni05BE,
uni05BF,
uni05C0,
uni05C1,
uni05C2,
uni05C3,
uni05C4,
uni05D0,
uni05D1,
uni05D2,
uni05D3,
uni05D4,
uni05D5,
uni05D6,
uni05D7,
uni05D8,
uni05D9,
uni05DA,
uni05DB,
uni05DC,
uni05DD,
uni05DE,
uni05DF,
uni05E0,
uni05E1,
uni05E2,
uni05E3,
uni05E4,
uni05E5,
uni05E6,
uni05E7,
uni05E8,
uni05E9,
uni05EA,

glyphs = (
{
glyphname = .notdef;
lastChange = "2017-07-24 05:49:16 +0000";
layers = (
{
layerId = "6CFB2232-83DA-4DC4-BCB5-DDBFA820FE35";
paths = (
{
closed = 1;
nodes = (
"897 1528 LINE",
"129 1528 LINE",
"129 0 LINE",
"897 0 LINE"
);
},
{
closed = 1;
nodes = (
"768 1401 LINE",
"768 129 LINE",
"256 129 LINE",
"256 1401 LINE"
);
}
);
width = 1024;
}
);
note = .notdef;
},
{
glyphname = uni05D0;
lastChange = "2017-07-24 05:49:16 +0000";
layers = (
{
layerId = "6CFB2232-83DA-4DC4-BCB5-DDBFA820FE35";
paths = (
{
closed = 1;
nodes = (
"30 1218 LINE",
"30 1120 LINE",
"549 -4 LINE",
"932 -4 LINE",
"932 171 LINE",
"434 1218 LINE"
);
},
{
closed = 1;
nodes = (
"938 644 LINE",
"938 1216 LINE",
"487 1216 LINE",
"825 496 LINE"
);
},
{
closed = 1;
nodes = (
"48 599 LINE",
"48 -4 LINE",
"499 -4 LINE",
"161 716 LINE"
);
}
);
width = 968;
}
);
note = uni05D0;
unicode = 05D0;
},
{
glyphname = uni05D1;
lastChange = "2017-07-24 05:49:16 +0000";
layers = (
{
layerId = "6CFB2232-83DA-4DC4-BCB5-DDBFA820FE35";
paths = (
{
closed = 1;
nodes = (
"834 576 LINE",
"834 959 LINE SMOOTH",
"834 1034 OFFCURVE",
"805 1099 OFFCURVE",
"756 1146 CURVE SMOOTH",
"707 1193 OFFCURVE",
"637 1220 OFFCURVE",
"554 1220 CURVE SMOOTH",
"30 1220 LINE",
"30 645 LINE",
"396 645 LINE",
"396 576 LINE",
"30 576 LINE",
"30 0 LINE",
"937 0 LINE",
"937 576 LINE"
);
}
);
width = 967;
}
);
note = uni05D1;
unicode = 05D1;
},
{
glyphname = uni05D2;
lastChange = "2017-07-24 05:49:16 +0000";
layers = (
{
layerId = "6CFB2232-83DA-4DC4-BCB5-DDBFA820FE35";
paths = (
{
closed = 1;
nodes = (
"40 576 LINE",
"40 0 LINE",
"443 0 LINE",
"216 576 LINE"
);
},
{
closed = 1;
nodes = (
"30 1220 LINE",
"502 0 LINE",
"885 0 LINE",
"885 175 LINE",
"480 1220 LINE"
);
}
);
width = 915;
}
);
note = uni05D2;
unicode = 05D2;
},
{
glyphname = uni05D3;
lastChange = "2017-07-24 05:49:16 +0000";
layers = (
{
layerId = "6CFB2232-83DA-4DC4-BCB5-DDBFA820FE35";
paths = (
{
closed = 1;
nodes = (
"833 645 LINE",
"936 645 LINE",
"936 959 LINE SMOOTH",
"936 1034 OFFCURVE",
"907 1099 OFFCURVE",
"859 1146 CURVE SMOOTH",
"810 1193 OFFCURVE",
"740 1221 OFFCURVE",
"657 1221 CURVE SMOOTH",
"30 1220 LINE",
"30 645 LINE",
"395 645 LINE",
"395 0 LINE",
"833 0 LINE"
);
}
);
width = 966;
}
);
note = uni05D3;
unicode = 05D3;
},
{
glyphname = uni05D4;
lastChange = "2017-07-24 05:49:16 +0000";
layers = (
{
layerId = "6CFB2232-83DA-4DC4-BCB5-DDBFA820FE35";
paths = (
{
closed = 1;
nodes = (
"916 960 LINE SMOOTH",
"916 1035 OFFCURVE",
"887 1100 OFFCURVE",
"839 1147 CURVE SMOOTH",
"790 1194 OFFCURVE",
"720 1221 OFFCURVE",
"637 1221 CURVE SMOOTH",
"30 1221 LINE",
"30 645 LINE",
"491 645 LINE",
"491 0 LINE",
"916 0 LINE"
);
},
{
closed = 1;
nodes = (
"30 576 LINE",
"30 0 LINE",
"422 0 LINE",
"422 576 LINE"
);
}
);
width = 946;
}
);
note = uni05D4;
unicode = 05D4;
},
{
glyphname = uni05D5;
lastChange = "2017-07-24 05:49:16 +0000";
layers = (
{
layerId = "6CFB2232-83DA-4DC4-BCB5-DDBFA820FE35";
paths = (
{
closed = 1;
nodes = (
"467 958 LINE SMOOTH",
"467 1033 OFFCURVE",
"438 1098 OFFCURVE",
"390 1145 CURVE SMOOTH",
"341 1192 OFFCURVE",
"271 1219 OFFCURVE",
"188 1219 CURVE SMOOTH",
"30 1219 LINE",
"30 0 LINE",
"467 0 LINE"
);
}
);
width = 497;
}
);
note = uni05D5;
unicode = 05D5;
},
{
glyphname = uni05D6;
lastChange = "2017-07-24 05:49:16 +0000";
layers = (
{
layerId = "6CFB2232-83DA-4DC4-BCB5-DDBFA820FE35";
paths = (
{
closed = 1;
nodes = (
"461 622 LINE",
"461 1222 LINE",
"30 1222 LINE",
"30 1082 LINE",
"214 899 LINE",
"30 715 LINE",
"30 0 LINE",
"461 0 LINE",
"461 549 LINE",
"225 785 LINE",
"260 823 LINE"
);
}
);
width = 491;
}
);
note = uni05D6;
unicode = 05D6;
},
{
glyphname = uni05D7;
lastChange = "2017-07-24 05:49:16 +0000";
layers = (
{
layerId = "6CFB2232-83DA-4DC4-BCB5-DDBFA820FE35";
paths = (
{
closed = 1;
nodes = (
"916 960 LINE SMOOTH",
"916 1035 OFFCURVE",
"887 1100 OFFCURVE",
"839 1147 CURVE SMOOTH",
"790 1194 OFFCURVE",
"720 1221 OFFCURVE",
"637 1221 CURVE SMOOTH",
"30 1221 LINE",
"30 0 LINE",
"419 0 LINE",
"419 645 LINE",
"488 645 LINE",
"488 0 LINE",
"916 0 LINE"
);
}
);
width = 946;
}
);
note = uni05D7;
unicode = 05D7;
},
{
glyphname = uni05D8;
lastChange = "2017-07-24 05:49:16 +0000";
layers = (
{
layerId = "6CFB2232-83DA-4DC4-BCB5-DDBFA820FE35";
paths = (
{
closed = 1;
nodes = (
"502 1221 LINE",
"502 645 LINE",
"873 645 LINE",
"873 576 LINE",
"433 576 LINE",
"433 1221 LINE",
"30 1221 LINE",
"30 0 LINE",
"988 0 LINE",
"988 960 LINE SMOOTH",
"988 1035 OFFCURVE",
"959 1100 OFFCURVE",
"911 1147 CURVE SMOOTH",
"862 1194 OFFCURVE",
"792 1221 OFFCURVE",
"709 1221 CURVE SMOOTH"
);
}
);
width = 1018;
}
);
note = uni05D8;
unicode = 05D8;
},
{
glyphname = uni05D9;
lastChange = "2017-07-24 05:49:16 +0000";
layers = (
{
layerId = "6CFB2232-83DA-4DC4-BCB5-DDBFA820FE35";
paths = (
{
closed = 1;
nodes = (
"468 960 LINE SMOOTH",
"468 1035 OFFCURVE",
"439 1100 OFFCURVE",
"391 1147 CURVE SMOOTH",
"342 1194 OFFCURVE",
"272 1221 OFFCURVE",
"189 1221 CURVE SMOOTH",
"30 1221 LINE",
"30 645 LINE",
"468 645 LINE"
);
}
);
width = 498;
}
);
note = uni05D9;
unicode = 05D9;
},
{
glyphname = uni05DA;
lastChange = "2017-07-24 05:49:16 +0000";
layers = (
{
layerId = "6CFB2232-83DA-4DC4-BCB5-DDBFA820FE35";
paths = (
{
closed = 1;
nodes = (
"521 828 LINE",
"521 -256 LINE",
"925 -256 LINE",
"925 828 LINE"
);
},
{
closed = 1;
nodes = (
"30 1221 LINE",
"30 645 LINE",
"925 645 LINE",
"925 1221 LINE"
);
}
);
width = 955;
}
);
note = uni05DA;
unicode = 05DA;
},
{
glyphname = uni05DB;
lastChange = "2017-07-24 05:49:16 +0000";
layers = (
{
layerId = "6CFB2232-83DA-4DC4-BCB5-DDBFA820FE35";
paths = (
{
closed = 1;
nodes = (
"30 1220 LINE",
"30 646 LINE",
"925 646 LINE",
"925 1220 LINE"
);
},
{
closed = 1;
nodes = (
"30 0 LINE",
"498 0 LINE SMOOTH",
"625 0 OFFCURVE",
"731 43 OFFCURVE",
"807 115 CURVE SMOOTH",
"882 187 OFFCURVE",
"925 289 OFFCURVE",
"925 405 CURVE SMOOTH",
"925 576 LINE",
"30 576 LINE"
);
},
{
closed = 1;
nodes = (
"925 456 LINE",
"925 786 LINE",
"850 786 LINE",
"850 456 LINE"
);
}
);
width = 955;
}
);
note = uni05DB;
unicode = 05DB;
},
{
glyphname = uni05DC;
lastChange = "2017-07-24 05:49:16 +0000";
layers = (
{
layerId = "6CFB2232-83DA-4DC4-BCB5-DDBFA820FE35";
paths = (
{
closed = 1;
nodes = (
"152 -1 LINE",
"498 -1 LINE SMOOTH",
"625 -1 OFFCURVE",
"731 42 OFFCURVE",
"807 114 CURVE SMOOTH",
"882 186 OFFCURVE",
"925 288 OFFCURVE",
"925 404 CURVE SMOOTH",
"925 1221 LINE",
"435 1221 LINE",
"435 1384 LINE",
"30 1384 LINE",
"30 645 LINE",
"851 645 LINE",
"851 576 LINE",
"152 576 LINE"
);
}
);
width = 955;
}
);
note = uni05DC;
unicode = 05DC;
},
{
glyphname = uni05DD;
lastChange = "2017-07-24 05:49:16 +0000";
layers = (
{
layerId = "6CFB2232-83DA-4DC4-BCB5-DDBFA820FE35";
paths = (
{
closed = 1;
nodes = (
"30 1221 LINE",
"30 645 LINE",
"949 645 LINE",
"949 1221 LINE"
);
},
{
closed = 1;
nodes = (
"30 576 LINE",
"30 0 LINE",
"949 0 LINE",
"949 576 LINE"
);
}
);
width = 979;
}
);
note = uni05DD;
unicode = 05DD;
},
{
glyphname = uni05DE;
lastChange = "2017-07-24 05:49:16 +0000";
layers = (
{
layerId = "6CFB2232-83DA-4DC4-BCB5-DDBFA820FE35";
paths = (
{
closed = 1;
nodes = (
"948 575 LINE",
"623 575 LINE",
"623 0 LINE",
"1038 0 LINE",
"1038 966 LINE SMOOTH",
"1038 1039 OFFCURVE",
"1009 1104 OFFCURVE",
"961 1149 CURVE SMOOTH",
"912 1194 OFFCURVE",
"842 1221 OFFCURVE",
"758 1221 CURVE SMOOTH",
"534 1221 LINE",
"534 645 LINE",
"948 645 LINE"
);
},
{
closed = 1;
nodes = (
"534 966 LINE SMOOTH",
"534 1039 OFFCURVE",
"505 1104 OFFCURVE",
"457 1149 CURVE SMOOTH",
"408 1194 OFFCURVE",
"338 1221 OFFCURVE",
"254 1221 CURVE SMOOTH",
"30 1221 LINE",
"30 0 LINE",
"534 0 LINE"
);
}
);
width = 1068;
}
);
note = uni05DE;
unicode = 05DE;
},
{
glyphname = uni05DF;
lastChange = "2017-07-24 05:49:16 +0000";
layers = (
{
layerId = "6CFB2232-83DA-4DC4-BCB5-DDBFA820FE35";
paths = (
{
closed = 1;
nodes = (
"534 966 LINE SMOOTH",
"534 1039 OFFCURVE",
"505 1104 OFFCURVE",
"457 1149 CURVE SMOOTH",
"408 1194 OFFCURVE",
"338 1221 OFFCURVE",
"255 1221 CURVE SMOOTH",
"30 1221 LINE",
"30 -256 LINE",
"534 -256 LINE"
);
}
);
width = 564;
}
);
note = uni05DF;
unicode = 05DF;
},
{
glyphname = uni05E0;
lastChange = "2017-07-24 05:49:16 +0000";
layers = (
{
layerId = "6CFB2232-83DA-4DC4-BCB5-DDBFA820FE35";
paths = (
{
closed = 1;
nodes = (
"552 575 LINE",
"30 575 LINE",
"30 0 LINE",
"626 0 LINE",
"626 966 LINE SMOOTH",
"626 1039 OFFCURVE",
"597 1104 OFFCURVE",
"549 1149 CURVE SMOOTH",
"500 1194 OFFCURVE",
"430 1221 OFFCURVE",
"346 1221 CURVE SMOOTH",
"122 1221 LINE",
"122 645 LINE",
"552 645 LINE"
);
}
);
width = 656;
}
);
note = uni05E0;
unicode = 05E0;
},
{
glyphname = uni05E1;
lastChange = "2017-07-24 05:49:16 +0000";
layers = (
{
layerId = "6CFB2232-83DA-4DC4-BCB5-DDBFA820FE35";
paths = (
{
closed = 1;
nodes = (
"30 1221 LINE",
"30 644 LINE",
"949 644 LINE",
"949 1221 LINE"
);
},
{
closed = 1;
nodes = (
"949 575 LINE",
"949 403 LINE SMOOTH",
"949 288 OFFCURVE",
"898 184 OFFCURVE",
"815 109 CURVE SMOOTH",
"731 34 OFFCURVE",
"617 -12 OFFCURVE",
"490 -12 CURVE SMOOTH",
"363 -12 OFFCURVE",
"248 34 OFFCURVE",
"165 109 CURVE SMOOTH",
"81 184 OFFCURVE",
"30 288 OFFCURVE",
"30 403 CURVE SMOOTH",
"30 575 LINE"
);
}
);
width = 979;
}
);
note = uni05E1;
unicode = 05E1;
},
{
glyphname = uni05E2;
lastChange = "2017-07-24 05:49:16 +0000";
layers = (
{
layerId = "6CFB2232-83DA-4DC4-BCB5-DDBFA820FE35";
paths = (
{
closed = 1;
nodes = (
"589 1221 LINE",
"589 544 LINE",
"999 544 LINE",
"999 1221 LINE"
);
},
{
closed = 1;
nodes = (
"109 1221 LINE",
"109 544 LINE",
"520 544 LINE",
"520 1221 LINE"
);
},
{
closed = 1;
nodes = (
"30 0 LINE",
"572 0 LINE SMOOTH",
"699 0 OFFCURVE",
"805 42 OFFCURVE",
"881 113 CURVE SMOOTH",
"956 184 OFFCURVE",
"999 284 OFFCURVE",
"999 399 CURVE SMOOTH",
"999 575 LINE",
"30 575 LINE"
);
}
);
width = 1029;
}
);
note = uni05E2;
unicode = 05E2;
},
{
glyphname = uni05E3;
lastChange = "2017-07-24 05:49:16 +0000";
layers = (
{
layerId = "6CFB2232-83DA-4DC4-BCB5-DDBFA820FE35";
paths = (
{
closed = 1;
nodes = (
"31 1221 LINE",
"31 907 LINE SMOOTH",
"31 832 OFFCURVE",
"60 767 OFFCURVE",
"109 720 CURVE SMOOTH",
"158 673 OFFCURVE",
"228 645 OFFCURVE",
"311 645 CURVE SMOOTH",
"781 645 LINE",
"781 1034 LINE",
"850 1034 LINE",
"850 576 LINE",
"420 576 LINE",
"420 -255 LINE",
"924 -255 LINE",
"924 1221 LINE"
);
}
);
width = 954;
}
);
note = uni05E3;
unicode = 05E3;
},
{
glyphname = uni05E4;
lastChange = "2017-07-24 05:49:16 +0000";
layers = (
{
layerId = "6CFB2232-83DA-4DC4-BCB5-DDBFA820FE35";
paths = (
{
closed = 1;
nodes = (
"32 1221 LINE",
"32 907 LINE SMOOTH",
"32 832 OFFCURVE",
"61 767 OFFCURVE",
"110 720 CURVE SMOOTH",
"159 673 OFFCURVE",
"229 645 OFFCURVE",
"312 645 CURVE SMOOTH",
"525 645 LINE",
"525 864 LINE",
"594 864 LINE",
"594 576 LINE",
"30 576 LINE",
"30 0 LINE",
"499 0 LINE SMOOTH",
"626 0 OFFCURVE",
"732 42 OFFCURVE",
"807 113 CURVE SMOOTH",
"882 184 OFFCURVE",
"925 284 OFFCURVE",
"925 399 CURVE SMOOTH",
"925 1221 LINE"
);
}
);
width = 955;
}
);
note = uni05E4;
unicode = 05E4;
},
{
glyphname = uni05E5;
lastChange = "2017-07-24 05:49:16 +0000";
layers = (
{
layerId = "6CFB2232-83DA-4DC4-BCB5-DDBFA820FE35";
paths = (
{
closed = 1;
nodes = (
"545 1222 LINE",
"780 645 LINE",
"944 645 LINE",
"944 1222 LINE"
);
},
{
closed = 1;
nodes = (
"485 1222 LINE",
"936 131 LINE",
"559 -50 LINE",
"30 1222 LINE"
);
},
{
closed = 1;
nodes = (
"944 575 LINE",
"944 -256 LINE",
"535 -256 LINE",
"535 575 LINE"
);
}
);
width = 974;
}
);
note = uni05E5;
unicode = 05E5;
},
{
glyphname = uni05E6;
lastChange = "2017-07-24 05:49:16 +0000";
layers = (
{
layerId = "6CFB2232-83DA-4DC4-BCB5-DDBFA820FE35";
paths = (
{
closed = 1;
nodes = (
"485 1221 LINE",
"30 1221 LINE",
"295 576 LINE",
"42 576 LINE",
"42 0 LINE",
"935 0 LINE",
"935 131 LINE"
);
},
{
closed = 1;
nodes = (
"544 1221 LINE",
"817 560 LINE",
"943 695 LINE",
"943 1221 LINE"
);
}
);
width = 973;
}
);
note = uni05E6;
unicode = 05E6;
},
{
glyphname = uni05E7;
lastChange = "2017-07-24 05:49:16 +0000";
layers = (
{
layerId = "6CFB2232-83DA-4DC4-BCB5-DDBFA820FE35";
paths = (
{
closed = 1;
nodes = (
"30 644 LINE",
"499 644 LINE",
"499 -1 LINE",
"649 -1 LINE SMOOTH",
"732 -1 OFFCURVE",
"802 26 OFFCURVE",
"851 73 CURVE SMOOTH",
"899 120 OFFCURVE",
"928 185 OFFCURVE",
"928 261 CURVE SMOOTH",
"928 1220 LINE",
"30 1220 LINE"
);
},
{
closed = 1;
nodes = (
"430 -255 LINE",
"430 576 LINE",
"30 576 LINE",
"30 -255 LINE"
);
}
);
width = 958;
}
);
note = uni05E7;
unicode = 05E7;
},
{
glyphname = uni05E8;
lastChange = "2017-07-24 05:49:16 +0000";
layers = (
{
layerId = "6CFB2232-83DA-4DC4-BCB5-DDBFA820FE35";
paths = (
{
closed = 1;
nodes = (
"819 960 LINE SMOOTH",
"819 1035 OFFCURVE",
"790 1100 OFFCURVE",
"742 1147 CURVE SMOOTH",
"693 1194 OFFCURVE",
"623 1221 OFFCURVE",
"540 1221 CURVE SMOOTH",
"30 1221 LINE",
"30 645 LINE",
"382 645 LINE",
"382 1 LINE",
"819 1 LINE"
);
}
);
width = 849;
}
);
note = uni05E8;
unicode = 05E8;
},
{
glyphname = uni05E9;
lastChange = "2017-07-24 05:49:16 +0000";
layers = (
{
layerId = "6CFB2232-83DA-4DC4-BCB5-DDBFA820FE35";
paths = (
{
closed = 1;
nodes = (
"991 0 LINE",
"1139 0 LINE SMOOTH",
"1222 0 OFFCURVE",
"1292 27 OFFCURVE",
"1341 74 CURVE SMOOTH",
"1390 121 OFFCURVE",
"1419 186 OFFCURVE",
"1419 262 CURVE SMOOTH",
"1419 1221 LINE",
"991 1221 LINE"
);
},
{
closed = 1;
nodes = (
"30 262 LINE SMOOTH",
"30 186 OFFCURVE",
"59 121 OFFCURVE",
"108 74 CURVE SMOOTH",
"156 27 OFFCURVE",
"226 0 OFFCURVE",
"310 0 CURVE SMOOTH",
"458 0 LINE",
"458 1221 LINE",
"30 1221 LINE"
);
},
{
closed = 1;
nodes = (
"929 0 LINE",
"929 1221 LINE",
"520 1221 LINE",
"520 0 LINE"
);
}
);
width = 1449;
}
);
note = uni05E9;
unicode = 05E9;
},
{
glyphname = uni05EA;
lastChange = "2017-07-24 05:49:16 +0000";
layers = (
{
layerId = "6CFB2232-83DA-4DC4-BCB5-DDBFA820FE35";
paths = (
{
closed = 1;
nodes = (
"1004 960 LINE SMOOTH",
"1004 1035 OFFCURVE",
"975 1100 OFFCURVE",
"927 1147 CURVE SMOOTH",
"878 1194 OFFCURVE",
"808 1221 OFFCURVE",
"725 1221 CURVE SMOOTH",
"113 1221 LINE",
"113 575 LINE",
"30 575 LINE",
"30 0 LINE",
"527 0 LINE",
"527 645 LINE",
"596 645 LINE",
"596 0 LINE",
"1004 0 LINE"
);
}
